<?xml version="1.0" encoding="UTF-8"?>
<svg id="펀잇 로고" width="174" height="23" viewBox="0 0 174 36" fill="none" xmlns="http://www.w3.org/2000/svg">
<title>펀잇 로고</title>
<path d="M21.2096 14.8291V21.4021H7.42532V33.6721H0.128906V3.20691H21.872V9.78522H7.42532V14.8291H21.2096Z" fill="black"/>
<path d="M53.7617 3.20691H60.9309L71.2348 21.6697V3.20691H78.4039V33.6721H71.2348L60.9309 14.8643V33.6721H53.7617V3.20691Z" fill="black"/>
<path d="M115.144 14.6222V21.1952H101.578V26.9293H116.145V33.4652H94.4023V3H115.8V9.57831H101.578V14.6222H115.144Z" fill="black"/>
<path d="M119.048 33.4652L128.805 3H138.276L148.034 33.4652H140.515L137.77 24.9398L128.444 27.6524L126.562 33.4652H119.043H119.048ZM130.758 20.4329L135.817 18.9413L133.538 11.7908L130.758 20.4276V20.4329Z" fill="black"/>
<path d="M164.675 9.57301V33.4652H157.495V9.57301H148.762V3H173.404V9.57831H164.671L164.675 9.57301Z" fill="black"/>
<path d="M39.2335 34.9623C37.5504 35.3389 35.9529 35.3666 34.4458 35.0952C32.8625 34.7961 31.4504 34.2588 30.1953 33.4002C28.9068 32.5527 27.8133 31.4117 26.9527 29.9826C26.0636 28.5978 25.4788 26.9416 25.1555 24.9807L23.3203 13.7861L30.3141 12.2295L32.0875 23.0309C32.2302 23.895 32.4584 24.6539 32.8102 25.3075C33.1335 26.0054 33.5709 26.5594 34.0987 27.008C34.5931 27.4678 35.2017 27.778 35.8911 27.9497C36.552 28.1657 37.2842 28.1657 38.0924 27.9885C38.9007 27.8112 39.5473 27.501 40.1273 27.008C40.6789 26.5594 41.1496 26.011 41.5299 25.3574C41.8437 24.7204 42.0767 24.0169 42.1908 23.2192C42.2764 22.4715 42.2811 21.6572 42.1432 20.7931L40.5648 11.1771L47.5586 9.62061L49.1989 19.6299C49.5222 21.5907 49.4651 23.3854 49.1133 25.0527C48.6996 26.7698 48.0768 28.2876 47.1782 29.628C46.2463 30.9741 45.1053 32.0819 43.7645 33.0291C42.381 33.9486 40.8548 34.6133 39.2383 34.9733L39.2335 34.9623Z" fill="black"/>
<path fill-rule="evenodd" clip-rule="evenodd" d="M40.7148 11.8569C40.7147 11.8548 40.7145 11.8528 44.2379 11.5532C47.7612 11.2536 47.761 11.2517 47.7609 11.2498L47.7606 11.2462L47.7601 11.2399L47.7594 11.2305C47.759 11.2257 47.7588 11.2235 47.7589 11.2241C47.759 11.2252 47.76 11.2368 47.7623 11.2583C47.7669 11.3012 47.7764 11.3825 47.7929 11.4959C47.8263 11.7242 47.8868 12.0729 47.9905 12.4944C48.203 13.3589 48.5676 14.4104 49.1611 15.3538C49.7374 16.2699 50.5006 17.044 51.5618 17.5213C52.6209 17.9976 54.2588 18.3051 56.7829 17.7867L58.1093 25.2508C54.4888 25.9943 51.4034 25.6872 48.8338 24.5316C46.2662 23.3769 44.4954 21.5018 43.3059 19.6111C42.1335 17.7476 41.5003 15.8344 41.1565 14.4361C40.9819 13.7261 40.8747 13.1188 40.8098 12.6739C40.7772 12.4507 40.7549 12.2661 40.7401 12.1274C40.7326 12.058 40.727 11.9998 40.7229 11.9538C40.7208 11.9308 40.7191 11.9108 40.7177 11.8939L40.7159 11.871L40.7152 11.8613L40.7148 11.8569Z" fill="black"/>
<path d="M29.8426 9.62055C31.844 9.62055 33.4665 7.82585 33.4665 5.61197C33.4665 3.3981 31.844 1.60339 29.8426 1.60339C27.8412 1.60339 26.2188 3.3981 26.2188 5.61197C26.2188 7.82585 27.8412 9.62055 29.8426 9.62055Z" fill="black"/>
<path d="M38.5418 8.01715C40.5432 8.01715 42.1657 6.22245 42.1657 4.00858C42.1657 1.7947 40.5432 0 38.5418 0C36.5404 0 34.918 1.7947 34.918 4.00858C34.918 6.22245 36.5404 8.01715 38.5418 8.01715Z" fill="black"/>
</svg>
