<?xml version="1.0" encoding="UTF-8"?>
<svg id="펀잇 로고" width="40" height="23" viewBox="0 0 108 56" fill="none" xmlns="http://www.w3.org/2000/svg">
<title>펀잇 로고</title>
<path d="M49.7174 37.7337H38.8838V20.6341H33.3206V11.4987H1.93225V2.42181H33.9647V11.2644H38.8838V0.430759H49.7174V37.7337ZM1.28809 34.4543L0.702483 25.3774H3.98186H6.67563L6.09003 13.1383H16.0453L16.6309 24.909L20.3787 24.5576L20.9058 13.1383H30.861L30.3925 23.2107L34.4332 22.3323L36.6585 30.2965C29.3385 32.6389 18.6219 34.4543 5.56299 34.4543H1.28809ZM33.7305 53.5449H10.8334V36.6796H21.9599V43.7654H36.2486C41.1091 43.7654 45.7353 43.5897 49.1318 42.2428L52.2355 51.144C47.0237 54.0134 41.8118 53.5449 33.7305 53.5449ZM104.19 36.3868H93.3563V0.430759H104.19V36.3868ZM56.9903 15.4808C56.9903 6.40391 63.959 1.07492 72.6845 1.07492C81.41 1.07492 88.3787 6.40391 88.3787 15.4808C88.3787 24.6162 81.41 29.9451 72.6845 29.9451C63.959 29.9451 56.9903 24.6162 56.9903 15.4808ZM63.4905 55.2432L59.8598 45.6393C73.7971 43.2969 79.009 38.4949 79.009 33.7516V33.1074H90.0769V34.63C90.1355 41.5986 94.0004 43.941 97.4555 44.2338C99.6222 44.4095 102.55 44.5267 104.541 43.1798L106.884 44.5852C107.704 50.9683 101.496 55.4189 93.9419 54.2477C88.9643 53.4864 85.8606 50.734 84.6308 46.1663C78.7748 51.671 69.4637 54.5405 63.4905 55.2432ZM67.2384 15.4808C67.2384 18.8187 69.7565 20.8097 72.6845 20.8097C75.6125 20.8097 78.072 18.8187 78.072 15.4808C78.072 12.2014 75.6125 10.2103 72.6845 10.2103C69.7565 10.2103 67.2384 12.2014 67.2384 15.4808Z" fill="#232527"/>
</svg>
